<svg width="390" height="71" viewBox="0 0 390 71" fill="none" xmlns="http://www.w3.org/2000/svg">
<path d="M95.1678 40.7096H90.5069L89.0564 46.0108H85.0055L86.4559 40.7096H83.5884V37.0683H87.4694L88.5831 33.0143H84.702V29.3729H89.5966L91.0834 24.0718H95.1344L93.6475 29.3729H98.3115L99.7953 24.0718H103.846L102.362 29.3729H105.263V33.0143H101.346L100.232 37.0683H104.147V40.7096H99.2218L97.7683 46.0108H93.7143L95.1678 40.7096ZM91.5265 37.0683H96.1874L97.301 33.0143H92.634L91.5265 37.0683Z" fill="white"/>
<path d="M123.694 34.0245V34.6678L132.494 44.7603V46.0105H126.122L118.424 36.9072H116.23V46.0105H110.495V24.0654H116.233V32.1674H118.393L125.448 24.0654H131.387V25.3156L123.694 34.0245Z" fill="white"/>
<path d="M135.332 29.13H141.003V30.7504C141.665 30.0951 142.451 29.5783 143.314 29.2303C144.178 28.8823 145.103 28.7099 146.034 28.7234C150.388 28.7234 153.562 32.1675 153.562 37.5688C153.562 42.9701 150.398 46.4111 146.043 46.4111C145.114 46.4309 144.191 46.265 143.327 45.9232C142.463 45.5814 141.676 45.0705 141.012 44.4206V51.242H135.332V29.13ZM140.794 37.5688C140.794 39.7657 142.177 41.0827 144.304 41.0827C146.432 41.0827 147.815 39.7657 147.815 37.5688C147.815 35.3718 146.432 34.0579 144.304 34.0579C142.177 34.0579 140.809 35.3749 140.809 37.5688H140.794Z" fill="white"/>
<path d="M161.503 29.1299L165.218 38.9554H165.421L168.898 29.1299H174.333V30.2101L168.222 46.0772C166.905 49.4879 165.114 51.5696 159.14 51.5696V46.1683C160.423 46.1683 161.3 46.0985 161.871 45.8648L155.662 30.2101V29.1299H161.503Z" fill="white"/>
<path d="M177.268 29.1299H190.131V34.3977H182.942V46.0105H177.268V29.1299Z" fill="white"/>
<path d="M192.528 37.569C192.528 32.1677 196.473 28.7236 201.847 28.7236C207.221 28.7236 211.165 32.1677 211.165 37.569C211.165 42.9703 207.215 46.4114 201.847 46.4114C196.479 46.4114 192.528 42.9734 192.528 37.569ZM198.266 37.569C198.266 39.766 199.686 41.0829 201.847 41.0829C204.007 41.0829 205.427 39.766 205.427 37.569C205.427 35.3721 204.01 34.0582 201.85 34.0582C199.689 34.0582 198.266 35.3751 198.266 37.569Z" fill="white"/>
<path d="M238.002 37.3685V38.7856C236.721 43.0339 232.094 46.4142 226.185 46.4142C219.206 46.4142 214.066 41.9263 214.066 34.9046C214.066 27.8829 219.197 23.4253 226.185 23.4253C231.79 23.4253 236.484 26.2595 238.002 31.0539V32.471H232.06C231.22 30.1102 229.096 28.7598 226.185 28.7598C222.405 28.7598 219.907 31.0539 219.907 34.9046C219.907 38.7553 222.405 41.0827 226.185 41.0827C229.089 41.0827 231.25 39.7324 232.094 37.3685H238.002Z" fill="white"/>
<path d="M241.95 29.1299H249.839C254.767 29.1299 258.381 30.8868 258.381 33.985C258.381 35.6388 257.268 36.716 255.847 37.3957V37.6991C257.234 38.2059 258.578 39.2862 258.578 40.9399C258.578 43.8773 255.407 46.0044 249.97 46.0044H241.95V29.1299ZM250.143 33.7544H247.609V36.0939H250.583C251.73 36.0939 252.403 35.6206 252.403 34.9469C252.415 34.1944 251.605 33.7877 250.155 33.7544H250.143ZM250.783 39.0555H247.621V41.386H250.222C251.809 41.386 252.649 40.9794 252.649 40.2026C252.652 39.5289 251.945 39.0555 250.795 39.0555H250.783Z" fill="white"/>
<path d="M279.829 39.6624V40.7427C278.782 43.9501 275.238 46.411 270.646 46.411C265.278 46.411 261.328 42.97 261.328 37.5656C261.328 32.1613 265.272 28.7202 270.646 28.7202C275.441 28.7202 279.085 31.4512 279.829 35.8785V38.306H267.102C267.372 40.1631 268.723 41.2767 270.646 41.2767C272.03 41.2767 273.247 40.77 273.887 39.6563L279.829 39.6624ZM267.439 35.308H273.854C273.28 34.1276 272.233 33.4509 270.646 33.4509C269.15 33.4509 268.013 34.1276 267.439 35.308Z" fill="white"/>
<path d="M292.792 46.0105H287.12V34.3977H281.989V29.1299H297.89V34.3977H292.792V46.0105Z" fill="white"/>
<path d="M307.882 39.6958H306.668V46.0105H300.994V29.1299H306.668V35.4446H307.815L312.643 29.1299H318.281V29.9067L312.44 37.4018L318.718 45.2337V46.0105H312.776L307.882 39.6958Z" fill="white"/>
<path d="M338.502 46.0108H332.831V44.4238C332.165 45.0714 331.378 45.5808 330.515 45.9224C329.651 46.2641 328.728 46.4313 327.8 46.4144C323.446 46.4144 320.271 42.9733 320.271 37.569C320.271 32.1646 323.446 28.7236 327.8 28.7236C328.731 28.7132 329.654 28.8869 330.518 29.2347C331.381 29.5826 332.167 30.0978 332.831 30.7506V29.1302H338.502V46.0108ZM333.04 37.569C333.04 35.3751 331.654 34.0581 329.53 34.0581C327.405 34.0581 326.016 35.3751 326.016 37.569C326.016 39.7629 327.402 41.0829 329.53 41.0829C331.657 41.0829 333.034 39.7659 333.034 37.569H333.04Z" fill="white"/>
<path d="M368.109 28.4199C363.972 33.7118 360.753 39.6612 358.587 46.0196H352.849C355.011 39.9477 358.073 34.2349 361.931 29.0723H349.438V24.0654H368.109V28.4199Z" fill="white"/>
<path d="M389.314 41.1493H386.477V46.0044H380.739V41.1493H368.923V36.8283L381.425 24.0654H386.489V36.4884H390L389.314 41.1493ZM380.739 36.4884V30.987L374.898 36.4884H380.739Z" fill="white"/>
<path d="M64.7776 34.926C62.7337 34.5547 60.6713 34.2933 58.5994 34.1431C53.4434 33.7744 48.2612 34.0887 43.1875 35.0777C45.9185 38.1121 48.1245 40.5397 49.5598 42.1631C52.039 44.9578 58.5205 52.3073 60.9086 54.6923C63.0327 56.8164 64.0129 57.8542 64.468 58.3337C67.1839 61.1284 68.6889 62.6759 69.6418 62.3088C70.5946 61.9416 70.6462 59.6142 70.5824 58.1698C70.4429 55.1263 69.663 48.2593 64.7776 34.926Z" fill="white"/>
<path d="M35.2951 35.2928C36.7955 32.2261 38.6831 29.3645 40.9119 26.7782C44.972 22.0779 47.2569 21.7046 47.8911 21.6197C49.9242 21.3708 51.6629 22.0961 52.7189 22.6726C54.3999 23.7623 55.9947 24.9797 57.489 26.3139C60.3146 28.8239 62.7669 31.7248 64.7717 34.9287C54.9113 33.1439 44.7574 33.9298 35.2891 37.2106L35.2951 35.2928Z" fill="white"/>
<path d="M34.943 5.80122C34.5093 8.22687 34.2296 10.6775 34.1055 13.1385C33.8656 18.03 34.2315 22.9324 35.1948 27.7342C37.4707 25.5089 39.8042 23.2735 42.1953 21.028C46.399 17.0711 50.5703 13.2933 54.7093 9.69441C56.8334 7.5703 57.8712 6.58714 58.3355 6.13501C61.1302 3.40401 62.6778 1.91107 62.3136 0.958252C61.9495 0.00543743 59.616 -0.0431136 58.1747 0.0175753C55.1432 0.135918 48.2763 0.91577 34.943 5.80122Z" fill="white"/>
<path d="M35.3285 35.2715C32.2617 33.7711 29.4001 31.8835 26.8138 29.6547C22.1135 25.5947 21.7403 23.3097 21.6553 22.6755C21.4938 20.9958 21.862 19.3076 22.7082 17.8477C23.797 16.166 25.0144 14.5712 26.3496 13.0776C28.8595 10.252 31.7605 7.79967 34.9643 5.79492C33.1754 15.6551 33.9614 25.8101 37.2462 35.2776L35.3285 35.2715Z" fill="white"/>
<path d="M35.6837 64.7663C36.1355 62.2539 36.4233 59.7148 36.5454 57.165C36.7655 52.4781 36.4232 47.7817 35.5259 43.1763C32.4914 45.9073 30.0639 48.1133 28.4435 49.5486C25.6336 52.0399 18.2993 58.5093 15.9143 60.8944C13.7902 63.0185 12.7524 64.0016 12.2729 64.4538C9.47823 67.1696 7.93066 68.6777 8.2948 69.6123C8.67713 70.6076 10.9924 70.6167 12.4368 70.556C15.4712 70.4316 22.3473 69.6487 35.6837 64.7663Z" fill="white"/>
<path d="M5.81245 35.6542C8.03224 36.0561 10.2734 36.3296 12.5246 36.4735C17.502 36.783 22.4985 36.4567 27.3934 35.5025C25.2794 33.1458 23.1553 30.7839 21.0211 28.4171C17.2462 24.2134 13.4744 20.037 9.70564 15.8879C7.58153 13.7638 6.59837 12.726 6.14624 12.2617C3.41524 9.467 1.92229 7.91943 0.96948 8.28356C0.0166655 8.6477 -0.0440233 10.9812 0.0166655 12.4256C0.147146 15.46 0.926998 22.3209 5.81245 35.6542Z" fill="white"/>
<path d="M35.2949 35.2869C33.7946 38.3537 31.9069 41.2153 29.6782 43.8015C25.6181 48.5019 23.3332 48.8751 22.699 48.9601C20.6659 49.2089 18.9271 48.4837 17.8712 47.9071C16.1908 46.8164 14.5962 45.5991 13.101 44.2658C10.2746 41.7555 7.82217 38.8535 5.81836 35.648C11.1382 36.6118 16.5661 36.8314 21.9464 36.3004C26.4965 35.8506 30.9779 34.8668 35.298 33.3691L35.2949 35.2869Z" fill="white"/>
<path d="M35.3103 35.2838C38.3771 36.7841 41.2387 38.6718 43.825 40.9005C48.5253 44.9606 48.8986 47.2456 48.9835 47.8798C49.2324 49.9128 48.5071 51.6516 47.9306 52.7076C46.8399 54.3879 45.6226 55.9826 44.2893 57.4777C41.779 60.3041 38.8769 62.7566 35.6714 64.7604C36.6353 59.4406 36.8548 54.0126 36.3238 48.6323C35.8741 44.0822 34.8902 39.6008 33.3926 35.2808L35.3103 35.2838Z" fill="white"/>
<path d="M35.295 43.1823C39.6557 43.1823 43.1906 39.6474 43.1906 35.2867C43.1906 30.9261 39.6557 27.3911 35.295 27.3911C30.9344 27.3911 27.3994 30.9261 27.3994 35.2867C27.3994 39.6474 30.9344 43.1823 35.295 43.1823Z" fill="white"/>
</svg>
